<svg xmlns="http://www.w3.org/2000/svg" xmlns:xlink="http://www.w3.org/1999/xlink" width="13" height="11" viewBox="0 0 13 11">
  <path d="M-0.184,4.007A1.013,1.013,0,0,1-.01,3.994H9.867l-0.215-.1a2,2,0,0,1-.566-0.4L6.316,0.732A1.032,1.032,0,0,1,6.171-.592a1,1,0,0,1,1.4-.216,1,1,0,0,1,.1.086l5.009,5a1,1,0,0,1,0,1.413h0l-5.009,5a1,1,0,0,1-1.417,0,0.948,0.948,0,0,1-.086-0.1A1.032,1.032,0,0,1,6.316,9.26L9.081,6.492a2,2,0,0,1,.5-0.365l0.3-.135H0.045a1.036,1.036,0,0,1-1.057-.839A1,1,0,0,1-.184,4.007Z"/>
</svg>
