<?xml version="1.0" encoding="utf-8"?>
<!-- Generator: Adobe Illustrator 23.0.1, SVG Export Plug-In . SVG Version: 6.00 Build 0)  -->
<svg version="1.1" id="Слой_1" xmlns="http://www.w3.org/2000/svg" xmlns:xlink="http://www.w3.org/1999/xlink" x="0px" y="0px"
	 viewBox="0 0 20 18" style="enable-background:new 0 0 20 18;" xml:space="preserve">
<path d="M6.4,11.9L6.4,11.9C6.4,11.9,6.4,11.9,6.4,11.9l10.6,0c0.3,0,0.5-0.2,0.6-0.4L20,3.3c0.1-0.2,0-0.4-0.1-0.5
	c-0.1-0.1-0.3-0.2-0.5-0.2H5.1L4.7,0.7C4.6,0.4,4.4,0.2,4.1,0.2H0.6C0.3,0.2,0,0.5,0,0.8s0.3,0.6,0.6,0.6h3c0.1,0.3,2,9,2.1,9.5
	c-0.6,0.3-1.1,0.9-1.1,1.6c0,1,0.8,1.8,1.8,1.8h10.6c0.3,0,0.6-0.3,0.6-0.6c0-0.3-0.3-0.6-0.6-0.6H6.4c-0.3,0-0.6-0.3-0.6-0.6
	C5.9,12.2,6.1,11.9,6.4,11.9z M18.6,3.7l-2,7H6.9l-1.6-7H18.6z"/>
<circle cx="7.6" cy="16" r="1.8"/>
<circle cx="15.9" cy="16" r="1.8"/>
</svg>
