<svg xmlns="http://www.w3.org/2000/svg" xmlns:xlink="http://www.w3.org/1999/xlink" width="20" height="20" viewBox="0 0 20 20">
  <path d="M16.279,15.024c-0.226-.242-0.46-0.472-0.69-0.7-0.115-.111-0.23-0.225-0.345-0.341l-1-1a1.916,1.916,0,0,0-2.883,0c-0.1.1-.209,0.206-0.312,0.309-0.238.234-.485,0.476-0.723,0.731a7.53,7.53,0,0,1-1.355-.884A14.211,14.211,0,0,1,7.261,11.5a0.74,0.74,0,0,0-1.113.975A15.167,15.167,0,0,0,8.041,14.3s0,0,.008,0a8.1,8.1,0,0,0,1.992,1.221,0.227,0.227,0,0,0,.049.017,0.979,0.979,0,0,0,1.084-.246l0.029-.03c0.279-.316.575-0.6,0.887-0.912,0.107-.1.214-0.209,0.32-0.317a0.652,0.652,0,0,1,.4-0.222,0.643,0.643,0,0,1,.4.222l1,1c0.119,0.119.242,0.239,0.357,0.354,0.23,0.222.444,0.436,0.649,0.653a0.058,0.058,0,0,0,.017.017,0.474,0.474,0,0,1-.008.757l-1.253,1.254a1.433,1.433,0,0,1-.936.44,5.008,5.008,0,0,1-2.2-.4,14.579,14.579,0,0,1-4.325-2.6A16.117,16.117,0,0,1,2.32,10.155a7.861,7.861,0,0,1-.838-2.78,1.571,1.571,0,0,1,.5-1.356A9.686,9.686,0,0,0,2.727,5.3c0.148-.156.287-0.3,0.435-0.435l0,0a0.5,0.5,0,0,1,.8-0.012L6,6.874,6.008,6.886a0.551,0.551,0,0,1,.193.35,0.622,0.622,0,0,1-.2.387L4.743,8.881A0.741,0.741,0,0,0,5.79,9.929L7.047,8.671a2.007,2.007,0,0,0,.637-1.448,1.949,1.949,0,0,0-.641-1.4L5.022,3.8A1.946,1.946,0,0,0,2.152,3.79c-0.172.161-.329,0.325-0.485,0.485a8.234,8.234,0,0,1-.645.625,0.179,0.179,0,0,1-.029.025A3.03,3.03,0,0,0,.008,7.47a9.245,9.245,0,0,0,.977,3.323v0A17.617,17.617,0,0,0,5.56,16.644,16.117,16.117,0,0,0,10.316,19.5a7.09,7.09,0,0,0,2.444.5c0.127,0,.259,0,0.39-0.016h0a2.913,2.913,0,0,0,1.856-.867l1.257-1.259,0.012-.012A1.946,1.946,0,0,0,16.279,15.024ZM15.988,9.995a7.329,7.329,0,0,0-5.975-5.987,0.741,0.741,0,0,0-.251,1.46,5.866,5.866,0,0,1,4.772,4.778,0.739,0.739,0,0,0,.727.617,0.6,0.6,0,0,0,.123-0.012A0.74,0.74,0,0,0,15.988,9.995Zm4-.181A12.022,12.022,0,0,0,10.2.011a0.741,0.741,0,0,0-.251,1.46,10.526,10.526,0,0,1,8.579,8.59,0.739,0.739,0,0,0,.727.617,0.612,0.612,0,0,0,.123-0.012A0.734,0.734,0,0,0,19.988,9.814Z"/>
</svg>
