<svg xmlns="http://www.w3.org/2000/svg" xmlns:xlink="http://www.w3.org/1999/xlink" width="26" height="18" viewBox="0 0 26 18">
  <path d="M19.637,11.454a3.273,3.273,0,1,0,3.277,3.273A3.279,3.279,0,0,0,19.637,11.454Zm0,4.909a1.636,1.636,0,1,1,1.639-1.636A1.639,1.639,0,0,1,19.637,16.363Zm-11.2-4.909a3.273,3.273,0,1,0,3.277,3.273A3.279,3.279,0,0,0,8.439,11.454Zm0,4.909a1.636,1.636,0,1,1,1.639-1.636A1.639,1.639,0,0,1,8.439,16.363Zm13.4-14.277a0.82,0.82,0,0,0-.732-0.451H16.8V3.272h3.81L22.837,7.7,24.3,6.968ZM10.979,13.936h6.2v1.636h-6.2V13.936Zm-5,0H3.141a0.818,0.818,0,1,0,0,1.636h2.84A0.818,0.818,0,1,0,5.981,13.936Zm19.847-5L24.216,6.862a0.819,0.819,0,0,0-.647-0.316H17.616V0.818A0.819,0.819,0,0,0,16.8,0H3.141a0.818,0.818,0,1,0,0,1.636H15.977V7.363a0.819,0.819,0,0,0,.819.818h6.372l1.193,1.535v4.22H22.094a0.818,0.818,0,1,0,0,1.636h3.086A0.819,0.819,0,0,0,26,14.754V9.436A0.819,0.819,0,0,0,25.828,8.934Zm-19.9.857H2.157a0.818,0.818,0,1,0,0,1.636H5.926A0.818,0.818,0,1,0,5.926,9.791ZM7.811,6.572H0.819a0.818,0.818,0,1,0,0,1.637H7.811A0.818,0.818,0,1,0,7.811,6.572ZM9.149,3.354H2.157a0.818,0.818,0,1,0,0,1.636H9.149A0.818,0.818,0,1,0,9.149,3.354Z"/>
</svg>
