<svg xmlns="http://www.w3.org/2000/svg" xmlns:xlink="http://www.w3.org/1999/xlink" width="12" height="20" viewBox="0 0 12 20">
  <path id="fb" class="cls-1" d="M11.548,0L8.67,0C5.436,0,3.347,1.93,3.347,4.921V7.19H0.452A0.432,0.432,0,0,0,0,7.6v3.288a0.432,0.432,0,0,0,.452.408H3.346v8.3A0.432,0.432,0,0,0,3.8,20H7.575a0.431,0.431,0,0,0,.452-0.408v-8.3h3.384a0.432,0.432,0,0,0,.453-0.408V7.6a0.391,0.391,0,0,0-.133-0.289,0.483,0.483,0,0,0-.32-0.119H8.027V5.266c0-.925.245-1.394,1.581-1.394h1.939A0.432,0.432,0,0,0,12,3.464V0.41A0.431,0.431,0,0,0,11.548,0Z"/>
</svg>
