<svg xmlns="http://www.w3.org/2000/svg" xmlns:xlink="http://www.w3.org/1999/xlink" width="20" height="25" viewBox="0 0 20 25">
  <path d="M19.5,4.014l-9.174-4.9a0.949,0.949,0,0,0-.906.005l-8.921,4.9A0.955,0.955,0,0,0,0,4.856v6.937A13.753,13.753,0,0,0,8.222,24.379L9.461,24.92a0.95,0.95,0,0,0,.758,0l1.394-.6A13.725,13.725,0,0,0,20,11.666V4.856A0.955,0.955,0,0,0,19.5,4.014Zm-1.4,7.652a11.818,11.818,0,0,1-7.228,10.895l-0.007,0L9.843,23l-0.857-.375A11.842,11.842,0,0,1,1.9,11.793V5.422L9.88,1.041,18.1,5.429v6.237h0ZM14.93,9.441A0.951,0.951,0,0,0,13.59,9.3L8.692,13.3,6.883,11.174a0.953,0.953,0,1,0-1.448,1.24l2.413,2.832a0.95,0.95,0,0,0,1.325.12l5.619-4.582A0.956,0.956,0,0,0,14.93,9.441Z"/>
</svg>
