<?xml version="1.0" encoding="utf-8"?>
<!-- Generator: Adobe Illustrator 23.0.1, SVG Export Plug-In . SVG Version: 6.00 Build 0)  -->
<svg version="1.1" id="Слой_1" xmlns="http://www.w3.org/2000/svg" xmlns:xlink="http://www.w3.org/1999/xlink" x="0px" y="0px"
	 viewBox="0 0 22 19" style="enable-background:new 0 0 22 19;" xml:space="preserve">
<path d="M11.6,1.6c2.4-2.3,6.2-2.1,8.5,0.3c2.1,2.3,2.1,5.9,0,8.2l-8.5,8.5c-0.4,0.4-1,0.4-1.4,0c0,0,0,0,0,0l-8.5-8.5
	c-2.3-2.4-2.1-6.2,0.3-8.5c2.3-2.1,5.9-2.1,8.2,0l0.8,0.7C10.9,2.4,11.6,1.6,11.6,1.6z M18.7,8.7c1.6-1.6,1.6-4.1,0-5.7
	S14.6,1.5,13,3l-1.5,1.5c-0.4,0.4-1,0.4-1.4,0c0,0,0,0,0,0L8.7,3C7.1,1.5,4.6,1.5,3,3S1.5,7.1,3,8.7l7.8,7.8L18.7,8.7z"/>
</svg>
