<svg xmlns="http://www.w3.org/2000/svg" xmlns:xlink="http://www.w3.org/1999/xlink" width="20" height="20" viewBox="0 0 20 20">
  <path id="in" class="cls-1" d="M13.75,0H6.25A6.251,6.251,0,0,0,0,6.249v7.5A6.25,6.25,0,0,0,6.25,20h7.5A6.25,6.25,0,0,0,20,13.749v-7.5A6.251,6.251,0,0,0,13.75,0Zm4.375,13.75a4.38,4.38,0,0,1-4.375,4.375H6.25a4.38,4.38,0,0,1-4.375-4.375v-7.5A4.38,4.38,0,0,1,6.25,1.874h7.5a4.38,4.38,0,0,1,4.375,4.375v7.5ZM10,5a5,5,0,1,0,5,5A5,5,0,0,0,10,5Zm0,8.125A3.125,3.125,0,1,1,13.125,10,3.129,3.129,0,0,1,10,13.124Zm5.375-9.166a0.666,0.666,0,1,1-.666.665A0.665,0.665,0,0,1,15.375,3.958Z"/>
</svg>
