<svg xmlns="http://www.w3.org/2000/svg" xmlns:xlink="http://www.w3.org/1999/xlink" width="20" height="24" viewBox="0 0 20 24">
  <path id="icon" class="cls-1" d="M10,0A6.22,6.22,0,0,0,3.625,6.037,6.22,6.22,0,0,0,10,12.074a6.22,6.22,0,0,0,6.375-6.037A6.22,6.22,0,0,0,10,0Zm0,10.3A4.391,4.391,0,0,1,5.5,6.037,4.391,4.391,0,0,1,10,1.775a4.391,4.391,0,0,1,4.5,4.261A4.391,4.391,0,0,1,10,10.3ZM10,14.2A9.794,9.794,0,0,0,0,24H1.875A7.9,7.9,0,0,1,10,15.98,7.9,7.9,0,0,1,18.125,24H20A9.794,9.794,0,0,0,10,14.2Z"/>
</svg>
