<svg xmlns="http://www.w3.org/2000/svg" xmlns:xlink="http://www.w3.org/1999/xlink" width="26" height="26" viewBox="0 0 26 26">
  <path d="M23.715,6.094h-3.1A3.806,3.806,0,0,0,17.57,0a3.419,3.419,0,0,0-2.936,1.426A14.8,14.8,0,0,0,13,4.813a14.793,14.793,0,0,0-1.635-3.387A3.419,3.419,0,0,0,8.43,0,3.807,3.807,0,0,0,5.385,6.094h-3.1A2.288,2.288,0,0,0,0,8.379V9.9a2.288,2.288,0,0,0,1.523,2.154V23.715A2.288,2.288,0,0,0,3.809,26H22.191a2.288,2.288,0,0,0,2.285-2.285V12.056A2.289,2.289,0,0,0,26,9.9V8.379A2.288,2.288,0,0,0,23.715,6.094ZM14.4,5.42c1.167-2.961,1.611-3.9,3.172-3.9a2.285,2.285,0,1,1,0,4.57H14.132C14.225,5.859,14.314,5.634,14.4,5.42ZM8.43,1.523c1.562,0,2.005.936,3.172,3.9,0.084,0.213.173,0.439,0.267,0.673H8.43A2.285,2.285,0,1,1,8.43,1.523ZM9.953,24.477H3.809a0.763,0.763,0,0,1-.762-0.762V12.187H9.953V24.477Zm0-13.813H2.285A0.763,0.763,0,0,1,1.523,9.9V8.379a0.763,0.763,0,0,1,.762-0.762H9.953v3.047Zm4.57,13.813H11.477V7.617h3.047v16.86Zm8.43-.762a0.763,0.763,0,0,1-.762.762H16.047V12.187h6.906V23.715ZM24.477,9.9a0.763,0.763,0,0,1-.762.762H16.047V7.617h7.668a0.763,0.763,0,0,1,.762.762V9.9Z"/>
</svg>
