<svg xmlns="http://www.w3.org/2000/svg" xmlns:xlink="http://www.w3.org/1999/xlink" width="16" height="16" viewBox="0 0 16 16">
  <path id="Forma_1" data-name="Forma 1" class="cls-1" d="M15.977,6.065A0.475,0.475,0,0,0,15.6,5.731l-4.96-.754-2.218-4.7a0.46,0.46,0,0,0-.841,0l-2.218,4.7L0.4,5.731a0.475,0.475,0,0,0-.378.334,0.506,0.506,0,0,0,.119.5l3.589,3.662L2.884,15.4a0.5,0.5,0,0,0,.187.48,0.451,0.451,0,0,0,.494.037L8,13.475l4.436,2.441a0.451,0.451,0,0,0,.494-0.037,0.5,0.5,0,0,0,.186-0.48l-0.847-5.17,3.589-3.662A0.507,0.507,0,0,0,15.977,6.065Z"/>
</svg>
