<svg xmlns="http://www.w3.org/2000/svg" xmlns:xlink="http://www.w3.org/1999/xlink" width="20" height="12" viewBox="0 0 20 12">
  <path id="vk" class="cls-1" d="M19.821,10.594A9.211,9.211,0,0,0,17.835,8.2c-1.675-1.619-1.45-1.356.567-4.154,1.229-1.7,1.72-2.746,1.566-3.191a1.133,1.133,0,0,0-1.05-.312l-3.005.018a0.665,0.665,0,0,0-.389.072A0.873,0.873,0,0,0,15.26.97a18.454,18.454,0,0,1-1.111,2.441C12.81,5.778,12.273,5.9,12.054,5.756c-0.509-.343-0.381-1.377-0.381-2.11,0-2.294.334-3.25-.651-3.5A4.928,4.928,0,0,0,9.618,0a6.248,6.248,0,0,0-2.5.265C6.781,0.443,6.517.831,6.678,0.853a1.33,1.33,0,0,1,.888.465,3.116,3.116,0,0,1,.3,1.416s0.177,2.7-.414,3.036C7.043,6,6.487,5.531,5.293,3.383A20.368,20.368,0,0,1,4.219,1.066,0.926,0.926,0,0,0,3.972.72,1.215,1.215,0,0,0,3.509.526l-2.858.018A0.948,0.948,0,0,0,.065.751a0.67,0.67,0,0,0-.011.528s2.238,5.449,4.77,8.2a6.72,6.72,0,0,0,4.961,2.352h1.195a0.984,0.984,0,0,0,.545-0.248,0.932,0.932,0,0,0,.164-0.546s-0.024-1.67.721-1.915,1.676,1.613,2.675,2.327a1.836,1.836,0,0,0,1.329.422l2.671-.039S20.484,11.737,19.821,10.594Z"/>
</svg>
